<svg width="221" height="178" viewBox="0 0 221 178" fill="none" xmlns="http://www.w3.org/2000/svg">
<rect width="221" height="90.6792" rx="10" fill="#A8CC05"/>
<path d="M64.9062 31.75C63.4479 31.75 61.9375 31.7604 60.375 31.7812C58.8125 31.8021 57.1042 31.8125 55.25 31.8125C54.75 31.8125 54.3125 31.6979 53.9375 31.4688C53.5625 31.2396 53.25 30.9479 53 30.5938C52.75 30.2188 52.5625 29.8021 52.4375 29.3438C52.3125 28.8854 52.25 28.4271 52.25 27.9688C52.25 26.7396 52.5938 25.8958 53.2812 25.4375C53.9688 24.9583 55.0833 24.7188 56.625 24.7188H81.5625C81.9792 24.7188 82.4062 24.7708 82.8438 24.875C83.3021 24.9792 83.7083 25.1667 84.0625 25.4375C84.4375 25.7083 84.7396 26.0625 84.9688 26.5C85.2188 26.9375 85.3438 27.5 85.3438 28.1875C85.3438 28.6875 85.2604 29.1667 85.0938 29.625C84.9271 30.0833 84.6979 30.4792 84.4062 30.8125C84.1354 31.1458 83.8021 31.4167 83.4062 31.625C83.0312 31.8333 82.625 31.9375 82.1875 31.9375C81.8542 31.9375 81.5312 31.9062 81.2188 31.8438C80.9062 31.7812 80.5729 31.75 80.2188 31.75H72.1562L72.0625 67C72.0625 67.5 72.0938 67.9896 72.1562 68.4688C72.2396 68.9479 72.2812 69.4688 72.2812 70.0312C72.2812 70.4896 72.2396 70.9479 72.1562 71.4062C72.0729 71.8646 71.8958 72.2812 71.625 72.6562C71.3542 73.0312 70.9688 73.3333 70.4688 73.5625C69.9688 73.8125 69.3125 73.9375 68.5 73.9375C67.5417 73.9375 66.8125 73.7708 66.3125 73.4375C65.8125 73.125 65.4479 72.7188 65.2188 72.2188C65.0104 71.7188 64.8958 71.1667 64.875 70.5625C64.8542 69.9583 64.8438 69.375 64.8438 68.8125L64.9062 31.75ZM92.75 69.4688C92.75 69.1146 92.7917 68.7396 92.875 68.3438C92.9792 67.9479 93.0833 67.5833 93.1875 67.25L93.4688 66.25L92.75 28.875C92.75 27.8542 92.8646 27.0625 93.0938 26.5C93.3438 25.9375 93.6562 25.5208 94.0312 25.25C94.4062 24.9792 94.8333 24.8229 95.3125 24.7812C95.8125 24.7396 96.3125 24.7188 96.8125 24.7188H113.281C113.656 24.6771 114.073 24.625 114.531 24.5625C115.01 24.4792 115.344 24.4375 115.531 24.4375C116.323 24.4375 116.958 24.5104 117.438 24.6562C117.938 24.8021 118.323 25.0208 118.594 25.3125C118.885 25.5833 119.073 25.9271 119.156 26.3438C119.26 26.7604 119.312 27.25 119.312 27.8125C119.312 28.6042 119.208 29.2396 119 29.7188C118.812 30.1979 118.542 30.5729 118.188 30.8438C117.854 31.0938 117.458 31.2604 117 31.3438C116.542 31.4271 116.052 31.4688 115.531 31.4688C115.302 31.4688 115 31.4688 114.625 31.4688C114.25 31.4479 113.854 31.4167 113.438 31.375C111.417 31.375 109.781 31.375 108.531 31.375C107.302 31.375 106.312 31.3854 105.562 31.4062C104.833 31.4062 104.271 31.4062 103.875 31.4062C103.5 31.4062 103.167 31.4062 102.875 31.4062H99.9688V41.3125C100.094 41.3125 100.24 41.3229 100.406 41.3438C100.594 41.3438 100.875 41.3438 101.25 41.3438C101.625 41.3438 102.135 41.3438 102.781 41.3438C103.448 41.3438 104.333 41.3438 105.438 41.3438C106.542 41.3438 107.906 41.3438 109.531 41.3438C111.156 41.3438 113.125 41.3438 115.438 41.3438C115.667 41.3438 115.927 41.3333 116.219 41.3125C116.51 41.2917 116.802 41.2604 117.094 41.2188C117.469 41.1771 117.906 41.1354 118.406 41.0938C118.906 41.0521 119.448 41.0312 120.031 41.0312C120.594 41.0312 121.094 41.1458 121.531 41.375C121.969 41.6042 122.333 41.8958 122.625 42.25C122.938 42.5833 123.167 42.9479 123.312 43.3438C123.479 43.7396 123.562 44.1146 123.562 44.4688C123.562 45.5938 123.188 46.4167 122.438 46.9375C121.708 47.4583 120.76 47.7188 119.594 47.7188L99.9688 47.75V66.4688C102.031 66.4688 104.104 66.5 106.188 66.5625C108.271 66.625 110.448 66.6562 112.719 66.6562C113.344 66.6562 113.917 66.625 114.438 66.5625C114.958 66.5 115.458 66.4271 115.938 66.3438C116.375 66.2812 116.812 66.2292 117.25 66.1875C117.708 66.125 118.208 66.0938 118.75 66.0938C119.375 66.0938 119.948 66.1458 120.469 66.25C121.01 66.3333 121.479 66.5 121.875 66.75C122.271 66.9792 122.583 67.3021 122.812 67.7188C123.042 68.1146 123.156 68.625 123.156 69.25C123.156 70.1667 123 70.875 122.688 71.375C122.375 71.875 121.948 72.25 121.406 72.5C120.885 72.7292 120.281 72.875 119.594 72.9375C118.927 72.9792 118.229 73 117.5 73H96.4688C95.9271 73 95.4271 72.9375 94.9688 72.8125C94.5312 72.6875 94.1458 72.4896 93.8125 72.2188C93.4792 71.9271 93.2188 71.5625 93.0312 71.125C92.8438 70.6667 92.75 70.1146 92.75 69.4688ZM128.969 70.5938C128.969 69.9271 129.062 69.2604 129.25 68.5938C129.438 67.9062 129.781 67.2188 130.281 66.5312C130.635 65.9271 131.115 65.0104 131.719 63.7812C132.344 62.5521 133.042 61.1042 133.812 59.4375C134.583 57.7708 135.406 55.9583 136.281 54C137.177 52.0208 138.083 50.0104 139 47.9688C139.917 45.9062 140.823 43.8542 141.719 41.8125C142.635 39.75 143.5 37.8229 144.312 36.0312C145.125 34.2188 145.865 32.5833 146.531 31.125C147.198 29.6667 147.76 28.4896 148.219 27.5938C148.281 27.1354 148.406 26.6875 148.594 26.25C148.781 25.7917 149.031 25.3854 149.344 25.0312C149.656 24.6562 150.031 24.3646 150.469 24.1562C150.906 23.9271 151.417 23.8125 152 23.8125C152.75 23.8125 153.354 23.9167 153.812 24.125C154.292 24.3333 154.677 24.625 154.969 25C155.281 25.3542 155.531 25.7708 155.719 26.25C155.906 26.7292 156.094 27.2396 156.281 27.7812C156.448 28.2604 156.604 28.7188 156.75 29.1562C156.896 29.5729 157.031 29.8958 157.156 30.125C158.552 32.9167 159.906 35.7292 161.219 38.5625C162.552 41.3958 163.865 44.2812 165.156 47.2188C166.469 50.1354 167.792 53.0938 169.125 56.0938C170.458 59.0938 171.844 62.1458 173.281 65.25L173.875 66.125C174.042 66.3542 174.24 66.6354 174.469 66.9688C174.698 67.2812 174.906 67.625 175.094 68C175.302 68.375 175.469 68.7708 175.594 69.1875C175.74 69.6042 175.812 70.0208 175.812 70.4375C175.812 71.6875 175.458 72.5729 174.75 73.0938C174.042 73.6354 173.177 73.9062 172.156 73.9062C171.594 73.9062 171.073 73.8125 170.594 73.625C170.135 73.4583 169.729 73.2292 169.375 72.9375C169.021 72.625 168.74 72.2708 168.531 71.875C168.323 71.4583 168.188 71.0208 168.125 70.5625C167.542 69.2917 167 68.1042 166.5 67C166 65.875 165.51 64.7917 165.031 63.75C164.573 62.7083 164.125 61.6979 163.688 60.7188C163.25 59.7188 162.812 58.7188 162.375 57.7188C162.042 57.7188 161.573 57.7188 160.969 57.7188C160.365 57.6979 159.688 57.6667 158.938 57.625C157.75 57.625 156.542 57.6146 155.312 57.5938C154.104 57.5729 152.865 57.5625 151.594 57.5625C150.323 57.5417 149.01 57.5417 147.656 57.5625C146.302 57.5625 144.885 57.5938 143.406 57.6562C143.177 57.6771 142.958 57.6979 142.75 57.7188C142.542 57.7188 142.323 57.7188 142.094 57.7188C141.51 59.1354 140.958 60.4896 140.438 61.7812C139.917 63.0521 139.448 64.2292 139.031 65.3125C138.615 66.3958 138.24 67.3646 137.906 68.2188C137.594 69.0521 137.354 69.7292 137.188 70.25V70.2188C137.062 70.6771 136.917 71.125 136.75 71.5625C136.604 72 136.385 72.3958 136.094 72.75C135.802 73.0833 135.396 73.3542 134.875 73.5625C134.375 73.7917 133.708 73.9062 132.875 73.9062C131.75 73.9062 130.812 73.625 130.062 73.0625C129.333 72.5 128.969 71.6771 128.969 70.5938ZM144.938 50.9062C145.375 50.9062 145.938 50.9062 146.625 50.9062C147.333 50.9062 148.24 50.9167 149.344 50.9375C150.469 50.9375 151.844 50.9479 153.469 50.9688C155.094 50.9688 157.062 50.9792 159.375 51C158.417 48.9167 157.333 46.5729 156.125 43.9688C154.917 41.3438 153.49 38.2917 151.844 34.8125C151.365 35.875 150.854 37.0417 150.312 38.3125C149.771 39.5833 149.198 40.9062 148.594 42.2812C148.01 43.6562 147.406 45.0729 146.781 46.5312C146.177 47.9896 145.562 49.4479 144.938 50.9062Z" fill="white"/>
<path d="M24.6028 141.392C27.2481 141.392 29.2321 140.816 30.5548 139.664C31.8774 138.512 32.5388 137.061 32.5388 135.312C32.5388 133.776 32.0268 132.517 31.0028 131.536C29.9788 130.555 28.4001 129.744 26.2668 129.104L21.4028 127.632C19.4401 127.035 17.7334 126.288 16.2828 125.392C14.8321 124.496 13.7014 123.365 12.8908 122C12.0801 120.635 11.6748 118.992 11.6748 117.072C11.6748 113.701 12.9121 111.056 15.3868 109.136C17.9041 107.173 21.2748 106.192 25.4988 106.192C27.8454 106.192 29.9361 106.448 31.7708 106.96C33.6481 107.429 35.0988 108.069 36.1228 108.88C37.1894 109.691 37.7228 110.608 37.7228 111.632C37.7228 112.315 37.5521 112.933 37.2108 113.488C36.8694 114 36.4214 114.427 35.8668 114.768C34.8428 113.957 33.4561 113.253 31.7068 112.656C29.9574 112.059 28.0374 111.76 25.9468 111.76C23.6428 111.76 21.8294 112.251 20.5068 113.232C19.1841 114.171 18.5228 115.451 18.5228 117.072C18.5228 118.352 18.9921 119.397 19.9308 120.208C20.8694 120.976 22.3414 121.659 24.3468 122.256L28.1228 123.408C31.6641 124.432 34.4161 125.883 36.3788 127.76C38.3841 129.595 39.3868 132.112 39.3868 135.312C39.3868 138.768 38.1068 141.563 35.5468 143.696C32.9868 145.829 29.3601 146.896 24.6667 146.896C22.0641 146.896 19.7601 146.597 17.7548 146C15.7921 145.445 14.2561 144.72 13.1468 143.824C12.0374 142.885 11.4828 141.883 11.4828 140.816C11.4828 139.963 11.7388 139.259 12.2508 138.704C12.7628 138.107 13.3388 137.659 13.9788 137.36C15.0454 138.299 16.4534 139.216 18.2028 140.112C19.9948 140.965 22.1281 141.392 24.6028 141.392ZM47.4683 121.36H54.0603V145.488C53.8469 145.573 53.4416 145.701 52.8443 145.872C52.2896 146 51.6923 146.064 51.0523 146.064C49.9856 146.064 49.1109 145.723 48.4283 145.04C47.7883 144.357 47.4683 143.483 47.4683 142.416V121.36ZM54.0603 131.536L47.4683 131.472V110.736C47.4683 109.627 47.7883 108.752 48.4283 108.112C49.1109 107.429 49.9856 107.088 51.0523 107.088C51.6923 107.088 52.2896 107.152 52.8443 107.28C53.4416 107.408 53.8469 107.536 54.0603 107.664V131.536ZM51.0523 128.784V123.344H70.3803C70.5509 123.6 70.7003 123.963 70.8283 124.432C70.9989 124.901 71.0843 125.413 71.0843 125.968C71.0843 126.864 70.8709 127.568 70.4443 128.08C70.0176 128.549 69.4203 128.784 68.6523 128.784H51.0523ZM51.0523 146.064V140.56H72.6203C72.7909 140.816 72.9403 141.179 73.0683 141.648C73.2389 142.117 73.3243 142.629 73.3243 143.184C73.3243 144.08 73.1109 144.784 72.6843 145.296C72.2576 145.808 71.6603 146.064 70.8923 146.064H51.0523ZM51.0523 112.592V107.088H72.3003C72.4709 107.344 72.6203 107.707 72.7483 108.176C72.9189 108.645 73.0043 109.157 73.0043 109.712C73.0043 110.608 72.7909 111.312 72.3643 111.824C71.9376 112.336 71.3403 112.592 70.5723 112.592H51.0523ZM81.7183 121.872H88.4383V145.488L85.3023 146.064C84.2356 146.064 83.3609 145.723 82.6783 145.04C82.0383 144.357 81.7183 143.483 81.7183 142.416V121.872ZM85.3023 146.064V140.432H105.91C106.124 140.688 106.316 141.051 106.486 141.52C106.657 141.989 106.742 142.523 106.742 143.12C106.742 144.059 106.508 144.784 106.038 145.296C105.569 145.808 104.95 146.064 104.182 146.064H85.3023ZM88.4383 128.464H81.7183V107.152C82.0169 107.067 82.4436 106.981 82.9983 106.896C83.5956 106.768 84.2143 106.704 84.8542 106.704C86.0916 106.704 86.9876 106.939 87.5423 107.408C88.1396 107.835 88.4383 108.624 88.4383 109.776V128.464ZM113.968 121.36H120.56V145.488C120.347 145.573 119.942 145.701 119.344 145.872C118.79 146 118.192 146.064 117.552 146.064C116.486 146.064 115.611 145.723 114.928 145.04C114.288 144.357 113.968 143.483 113.968 142.416V121.36ZM120.56 131.536L113.968 131.472V110.736C113.968 109.627 114.288 108.752 114.928 108.112C115.611 107.429 116.486 107.088 117.552 107.088C118.192 107.088 118.79 107.152 119.344 107.28C119.942 107.408 120.347 107.536 120.56 107.664V131.536ZM117.552 128.784V123.344H136.88C137.051 123.6 137.2 123.963 137.328 124.432C137.499 124.901 137.584 125.413 137.584 125.968C137.584 126.864 137.371 127.568 136.944 128.08C136.518 128.549 135.92 128.784 135.152 128.784H117.552ZM117.552 146.064V140.56H139.12C139.291 140.816 139.44 141.179 139.568 141.648C139.739 142.117 139.824 142.629 139.824 143.184C139.824 144.08 139.611 144.784 139.184 145.296C138.758 145.808 138.16 146.064 137.392 146.064H117.552ZM117.552 112.592V107.088H138.8C138.971 107.344 139.12 107.707 139.248 108.176C139.419 108.645 139.504 109.157 139.504 109.712C139.504 110.608 139.291 111.312 138.864 111.824C138.438 112.336 137.84 112.592 137.072 112.592H117.552ZM176.771 111.76C176.771 112.443 176.558 113.061 176.131 113.616C175.747 114.128 175.278 114.533 174.723 114.832C173.657 114.064 172.398 113.36 170.947 112.72C169.497 112.08 167.662 111.76 165.443 111.76C162.969 111.76 160.75 112.336 158.787 113.488C156.867 114.597 155.353 116.261 154.243 118.48C153.134 120.656 152.579 123.365 152.579 126.608C152.579 131.472 153.774 135.141 156.163 137.616C158.595 140.091 161.795 141.328 165.763 141.328C167.854 141.328 169.667 141.029 171.203 140.432C172.782 139.835 174.105 139.152 175.171 138.384C175.683 138.683 176.131 139.109 176.515 139.664C176.899 140.176 177.091 140.795 177.091 141.52C177.091 142.117 176.942 142.672 176.643 143.184C176.345 143.653 175.833 144.101 175.107 144.528C174.169 145.125 172.889 145.659 171.267 146.128C169.646 146.64 167.577 146.896 165.059 146.896C161.475 146.896 158.211 146.149 155.267 144.656C152.323 143.163 149.977 140.923 148.227 137.936C146.521 134.907 145.667 131.131 145.667 126.608C145.667 122.128 146.542 118.373 148.291 115.344C150.041 112.315 152.366 110.032 155.267 108.496C158.169 106.96 161.326 106.192 164.739 106.192C167.171 106.192 169.283 106.469 171.075 107.024C172.867 107.536 174.254 108.219 175.235 109.072C176.259 109.925 176.771 110.821 176.771 111.76ZM196.269 112.656L196.013 107.088H212.525C212.696 107.344 212.867 107.728 213.037 108.24C213.208 108.709 213.293 109.2 213.293 109.712C213.293 110.651 213.059 111.376 212.589 111.888C212.163 112.4 211.565 112.656 210.797 112.656H196.269ZM199.341 107.088L199.533 112.656H183.021C182.851 112.4 182.68 112.037 182.509 111.568C182.339 111.056 182.253 110.523 182.253 109.968C182.253 109.029 182.467 108.325 182.893 107.856C183.363 107.344 183.981 107.088 184.749 107.088H199.341ZM194.413 110.928H201.069V145.872C200.813 145.957 200.387 146.064 199.789 146.192C199.192 146.32 198.595 146.384 197.997 146.384C196.76 146.384 195.843 146.149 195.245 145.68C194.691 145.168 194.413 144.357 194.413 143.248V110.928Z" fill="black"/>
</svg>
